<?xml version="1.0" encoding="UTF-8"?>
<svg id="svg2" xmlns="http://www.w3.org/2000/svg" xmlns:xlink="http://www.w3.org/1999/xlink" viewBox="0 0 343.24 285.77">
  <defs>
    <style>
      .cls-1 {
        stroke: #738251;
      }

      .cls-1, .cls-2, .cls-3 {
        fill: none;
      }

      .cls-1, .cls-3 {
        stroke-linecap: round;
        stroke-linejoin: round;
        stroke-width: 2px;
      }

      .cls-3 {
        stroke: #8a8fbd;
      }

      .cls-4 {
        fill: #b4b7d3;
      }

      .cls-5 {
        clip-path: url(#clippath);
      }
    </style>
    <clipPath id="clippath">
      <polygon class="cls-2" points="-98.51 156.63 49.44 -54.62 388.99 175.14 241.04 386.39 -98.51 156.63"/>
    </clipPath>
  </defs>
  <g class="cls-5">
    <g>
      <path class="cls-4" d="M27.86,196.48c-4.44,4.76-4.07,10.03-1.98,15.47,2.16,5.61,4.77,10.96,8.78,15.53,3.97,4.51,9.12,6.24,15.02,6.15,2.83-.04,5.64-.55,8.47-.85,3.3-.35,6.37.05,8.99,2.16,2.37,1.89,4.69,1.17,6.71-.26,3.79,2.84,7.27,5.58,11.83,6.57,3.62.79,6.9,2.49,9.98,4.45,4.31,2.74,8.31,5.99,13.02,8.08,12.65,5.62,25.5,7.9,38.32-.14,3.06-1.91,5.61-4.59,7.4-8.16,1.46-2.9,3.22-5.83,5.43-8.51,3.03-3.69,6.47-7.23,8.51-11.7.9-1.97,1.03-4,1.27-6.06.38-3.17,1.76-4.08,4.22-2.3,2.81,2.04,5.84,2.18,9.05,2.06,5.12-.19,10.22.34,14.81,2.3,3.21,1.38,6.16,3.65,8.82,6.09,3.32,3.06,6.53,6.22,10,9.12,2.89,2.42,5.58,5.06,8.7,7.23,6.25,4.35,13.51,6.24,20.7,8.37,22.88,6.79,46.32,7.68,70.08,5.21"/>
      <path class="cls-1" d="M27.86,196.48c-4.44,4.76-4.07,10.03-1.98,15.47,2.16,5.61,4.77,10.96,8.78,15.53,3.97,4.51,9.12,6.24,15.02,6.15,2.83-.04,5.64-.55,8.47-.85,3.3-.35,6.37.05,8.99,2.16,2.37,1.89,4.69,1.17,6.71-.26,3.79,2.84,7.27,5.58,11.83,6.57,3.62.79,6.9,2.49,9.98,4.45,4.31,2.74,8.31,5.99,13.02,8.08,12.65,5.62,25.5,7.9,38.32-.14,3.06-1.91,5.61-4.59,7.4-8.16,1.46-2.9,3.22-5.83,5.43-8.51,3.03-3.69,6.47-7.23,8.51-11.7.9-1.97,1.03-4,1.27-6.06.38-3.17,1.76-4.08,4.22-2.3,2.81,2.04,5.84,2.18,9.05,2.06,5.12-.19,10.22.34,14.81,2.3,3.21,1.38,6.16,3.65,8.82,6.09,3.32,3.06,6.53,6.22,10,9.12,2.89,2.42,5.58,5.06,8.7,7.23,6.25,4.35,13.51,6.24,20.7,8.37,22.88,6.79,46.32,7.68,70.08,5.21"/>
      <path class="cls-4" d="M107.14,149.27c-1.2-2.03-1.94-4.41-4.29-5.57-.5-.24-.87-1.04-.94-1.35-1.05-4.46-5.04-6.59-7.76-9.66-1.26-1.42-2.87-2.67-4.45-3.89-4.89-3.76-10.68-4.08-16.52-4.51-2.99-.21-5.99-.48-8.96-.65-4.84-.28-8.82,2.31-12.59,5.2-4.06,3.11-6.41,7.52-9.33,11.5-1.49,2.03-3.09,3.85-5.05,5.52-2.42,2.06-3.25,5.24-3.24,8.27.03,7.59,2.56,14.3,7.59,19.98.41.45,1.02.72,1.54,1.07"/>
      <path class="cls-3" d="M107.14,149.27c-1.2-2.03-1.94-4.41-4.29-5.57-.5-.24-.87-1.04-.94-1.35-1.05-4.46-5.04-6.59-7.76-9.66-1.26-1.42-2.87-2.67-4.45-3.89-4.89-3.76-10.68-4.08-16.52-4.51-2.99-.21-5.99-.48-8.96-.65-4.84-.28-8.82,2.31-12.59,5.2-4.06,3.11-6.41,7.52-9.33,11.5-1.49,2.03-3.09,3.85-5.05,5.52-2.42,2.06-3.25,5.24-3.24,8.27.03,7.59,2.56,14.3,7.59,19.98.41.45,1.02.72,1.54,1.07"/>
      <path class="cls-4" d="M58.04,117.36c-2.42-3.27-6.24-4.78-9.48-3.78-2.99.93-6.14,4.83-6.35,8.2-.1,1.58-.14,3.19.18,4.79.32,1.63-.52,2.7-2.16,3.13-.35.09-.03.05-.38.06-5.6.19-8.34,3.72-9.85,8.5-1.63,5.21-3.94,10.21-4.57,15.75-.83,7.28,2.47,12.54,7.6,16.87,2.85,2.41,5.49,5.21,9.13,6.6"/>
      <path class="cls-3" d="M58.04,117.36c-2.42-3.27-6.24-4.78-9.48-3.78-2.99.93-6.14,4.83-6.35,8.2-.1,1.58-.14,3.19.18,4.79.32,1.63-.52,2.7-2.16,3.13-.35.09-.03.05-.38.06-5.6.19-8.34,3.72-9.85,8.5-1.63,5.21-3.94,10.21-4.57,15.75-.83,7.28,2.47,12.54,7.6,16.87,2.85,2.41,5.49,5.21,9.13,6.6"/>
      <path class="cls-4" d="M156.06,97.66c1.83,3.43,4.46,6.34,6.25,9.81,1.42,2.76,3.59,5.08,5.82,7.14,2.48,2.29,5.42,4.18,9.1,4.3,3.75.12,7.25.67,9.75,3.89,1.05,1.34,3.01,1.76,4.54,2.32,2.91,1.06,4.4,3.06,4.8,5.76.91,6.05.68,12.09-1.7,17.93-1.2,2.94-3.93,4.6-6.02,6.8-.88.92-1.99,1.73-2.22,3.11"/>
      <path class="cls-3" d="M156.06,97.66c1.83,3.43,4.46,6.34,6.25,9.81,1.42,2.76,3.59,5.08,5.82,7.14,2.48,2.29,5.42,4.18,9.1,4.3,3.75.12,7.25.67,9.75,3.89,1.05,1.34,3.01,1.76,4.54,2.32,2.91,1.06,4.4,3.06,4.8,5.76.91,6.05.68,12.09-1.7,17.93-1.2,2.94-3.93,4.6-6.02,6.8-.88.92-1.99,1.73-2.22,3.11"/>
      <path class="cls-4" d="M119.66,187.07c-4.47-3.13-8.2-7.2-13.37-9.5-2.85-1.27-4.85-3.97-7.18-6.08-3.57-3.24-7.95-4.99-12.38-6.66-1-.38-2.19-.87-3.03.55-.72,1.23-.25,2.17.36,3.23,1.44,2.57,4.01,3.98,5.96,6.01,4.74,4.97,11.55,6.91,16.71,11.26.77.64,1.9.93,2.13,2.1"/>
      <path class="cls-3" d="M119.66,187.07c-4.47-3.13-8.2-7.2-13.37-9.5-2.85-1.27-4.85-3.97-7.18-6.08-3.57-3.24-7.95-4.99-12.38-6.66-1-.38-2.19-.87-3.03.55-.72,1.23-.25,2.17.36,3.23,1.44,2.57,4.01,3.98,5.96,6.01,4.74,4.97,11.55,6.91,16.71,11.26.77.64,1.9.93,2.13,2.1"/>
      <path class="cls-4" d="M141.75,70.84c-2.7-1.5-5.38-3.14-8.36-3.96-6.17-1.66-12.26-.76-18.03,1.94-4.47,2.09-8.79,3.06-13.66,1.68-6.44-1.84-11.49.7-15.89,5.65-3.18,3.56-6.18,7.22-8.99,11.07-6.48,8.86-4.93,16.59-.11,23.63,2.82,4.12,6.27,7.74,9.82,11.25,1.01.98,2.3,1.73,3.69,2.2.02.01.14-.14.15-.21,0-.12-.03-.24-.06-.37"/>
      <path class="cls-3" d="M141.75,70.84c-2.7-1.5-5.38-3.14-8.36-3.96-6.17-1.66-12.26-.76-18.03,1.94-4.47,2.09-8.79,3.06-13.66,1.68-6.44-1.84-11.49.7-15.89,5.65-3.18,3.56-6.18,7.22-8.99,11.07-6.48,8.86-4.93,16.59-.11,23.63,2.82,4.12,6.27,7.74,9.82,11.25,1.01.98,2.3,1.73,3.69,2.2.02.01.14-.14.15-.21,0-.12-.03-.24-.06-.37"/>
      <path class="cls-4" d="M170.81,43.38c3.3-1.67,6.62-1.83,9.43.56,1.43,1.21,2.7,2.73,3.96,4.19,4.64,5.37,9,11,13.99,16.06,2.01,2.04,3.87,4.24,6.91,5.15,2.04.61,3.01,2.65,4.03,4.54,2.94,5.36,5.48,10.81,6.08,17.02.24,2.48-.24,4.88-1.15,7.16-.63,1.58-1.98,2.81-3.84,2.26-1.58-.45-2.12-1.98-1.77-3.46.85-3.52,2.09-6.87,6.2-7.99"/>
      <path class="cls-3" d="M170.81,43.38c3.3-1.67,6.62-1.83,9.43.56,1.43,1.21,2.7,2.73,3.96,4.19,4.64,5.37,9,11,13.99,16.06,2.01,2.04,3.87,4.24,6.91,5.15,2.04.61,3.01,2.65,4.03,4.54,2.94,5.36,5.48,10.81,6.08,17.02.24,2.48-.24,4.88-1.15,7.16-.63,1.58-1.98,2.81-3.84,2.26-1.58-.45-2.12-1.98-1.77-3.46.85-3.52,2.09-6.87,6.2-7.99"/>
      <path class="cls-4" d="M175.02,67.32c-1.35-5.81-1.74-11.78-2.74-17.65-1.61-9.54-6.36-13.36-15.65-15.5-3.23-.75-6.53-1.26-9.93-.82-4.93.63-8.22,3.83-6.57,9.78.63,2.3,1.63,4.42,2.28,6.71,1.29,4.48,1.37,8.92.36,13.48-.51,2.33-.62,4.71-.77,7.09-.08,1.28.28,2.46,1.19,3.02,2.76,1.71,3.99,4.64,5.38,7.17,2.33,4.22,5.41,8.21,5.93,13.32.04.43.93,1.15,1.21,1.89"/>
      <path class="cls-3" d="M175.02,67.32c-1.35-5.81-1.74-11.78-2.74-17.65-1.61-9.54-6.36-13.36-15.65-15.5-3.23-.75-6.53-1.26-9.93-.82-4.93.63-8.22,3.83-6.57,9.78.63,2.3,1.63,4.42,2.28,6.71,1.29,4.48,1.37,8.92.36,13.48-.51,2.33-.62,4.71-.77,7.09-.08,1.28.28,2.46,1.19,3.02,2.76,1.71,3.99,4.64,5.38,7.17,2.33,4.22,5.41,8.21,5.93,13.32.04.43.93,1.15,1.21,1.89"/>
      <path class="cls-4" d="M196.24,165.72c6.44-5,12.5-10.26,14.21-18.77.1-.52.84-1.59,1.2-1.71,3.72-1.27,6.02-4.79,9.74-6.03.49,1.57,1.43,2.93,2.14,4.41,2.94,6.1,3.38,12.02-.28,18.3-3.72,6.38-7.55,12.59-13.49,17.24-3.11,2.44-6.62,4.03-10.53,4.76-4.05.75-8.18,1.25-12.1,2.42-3.15.95-6.34,2.42-7.15,6.3-.21.96-.43,1.82.11,2.69"/>
      <path class="cls-3" d="M196.24,165.72c6.44-5,12.5-10.26,14.21-18.77.1-.52.84-1.59,1.2-1.71,3.72-1.27,6.02-4.79,9.74-6.03.49,1.57,1.43,2.93,2.14,4.41,2.94,6.1,3.38,12.02-.28,18.3-3.72,6.38-7.55,12.59-13.49,17.24-3.11,2.44-6.62,4.03-10.53,4.76-4.05.75-8.18,1.25-12.1,2.42-3.15.95-6.34,2.42-7.15,6.3-.21.96-.43,1.82.11,2.69"/>
      <path class="cls-4" d="M125.86,186.65c1.96,2.3,1.7,4.2-.75,5.75-2.89,1.85-5.59,3.96-6.73,7.3-1.88,5.49.02,10.82,4.86,14.52.57.44,1.38.59,1.64,1.41.4,1.3,1.58,1.22,2.52,1.04,8.34-1.63,16.64-1.18,24.88.16,1.87.31,3.93.97,5.55,2.29.6.49,1.22.89,1.06,1.75-.16.79-.93,1.07-1.54,1.24-4.49,1.25-9.08,1.35-13.58.65-5.21-.81-10.47-1.76-14.98-4.76-.47-.32-.86-.68-1.17-1.14"/>
      <path class="cls-3" d="M125.86,186.65c1.96,2.3,1.7,4.2-.75,5.75-2.89,1.85-5.59,3.96-6.73,7.3-1.88,5.49.02,10.82,4.86,14.52.57.44,1.38.59,1.64,1.41.4,1.3,1.58,1.22,2.52,1.04,8.34-1.63,16.64-1.18,24.88.16,1.87.31,3.93.97,5.55,2.29.6.49,1.22.89,1.06,1.75-.16.79-.93,1.07-1.54,1.24-4.49,1.25-9.08,1.35-13.58.65-5.21-.81-10.47-1.76-14.98-4.76-.47-.32-.86-.68-1.17-1.14"/>
      <path class="cls-4" d="M215.64,88.87c3.47-.15,5.66,2.31,7.9,4.15,8.82,7.22,10.97,17.06,9.9,28-.81,8.25-5.66,13.74-12.5,17.91-.69-.33-.46-1.12-.89-1.6-2.82-3.13-5.15-2.61-6.61,1.47-.68,1.89-1.54,3.72-1.72,5.76"/>
      <path class="cls-3" d="M215.64,88.87c3.47-.15,5.66,2.31,7.9,4.15,8.82,7.22,10.97,17.06,9.9,28-.81,8.25-5.66,13.74-12.5,17.91-.69-.33-.46-1.12-.89-1.6-2.82-3.13-5.15-2.61-6.61,1.47-.68,1.89-1.54,3.72-1.72,5.76"/>
      <path class="cls-4" d="M160.11,145.23c-2.64-3.2-5.18-6.5-7.37-10.01-1.96-3.14-1.42-6.81-.62-10.27.29-1.29.49-2.62.96-3.91,1.04-2.84.09-5.34-1.29-7.86-3.23-5.88-2.46-9.34,2.54-14.07.65-.62,1.95-1.19,1.52-2.62-.8-.35-1.77-.34-2.53-.99-4.45-3.74-9.98-4.82-15.51-5.93-3.76-.76-7.32-2.15-10.68-3.93-3.17-1.68-6.51-2.33-10.14-1.93-4.18.47-7.51,2.95-8.06,8.37-.32,3.2.04,6.46,1.95,9.27.57.84,1.27,1.75,2.35,1.22.93-.44.74-1.57.36-2.33-.94-1.83-1.71-3.88-4.08-4.45"/>
      <path class="cls-3" d="M160.11,145.23c-2.64-3.2-5.18-6.5-7.37-10.01-1.96-3.14-1.42-6.81-.62-10.27.29-1.29.49-2.62.96-3.91,1.04-2.84.09-5.34-1.29-7.86-3.23-5.88-2.46-9.34,2.54-14.07.65-.62,1.95-1.19,1.52-2.62-.8-.35-1.77-.34-2.53-.99-4.45-3.74-9.98-4.82-15.51-5.93-3.76-.76-7.32-2.15-10.68-3.93-3.17-1.68-6.51-2.33-10.14-1.93-4.18.47-7.51,2.95-8.06,8.37-.32,3.2.04,6.46,1.95,9.27.57.84,1.27,1.75,2.35,1.22.93-.44.74-1.57.36-2.33-.94-1.83-1.71-3.88-4.08-4.45"/>
      <path class="cls-4" d="M85.38,106.86c3.42-1.93,6.58-1.5,9.06,1.55,3.91,4.79,7.08,10.03,8.77,16.08.28,1,.44,1.99.48,3,.12,3.09-1.42,3.91-4.54,3.27-3.35-.68-5.3-3.09-7.65-5.03-.39-.32-.86-.66-1.23-1.08"/>
      <path class="cls-3" d="M85.38,106.86c3.42-1.93,6.58-1.5,9.06,1.55,3.91,4.79,7.08,10.03,8.77,16.08.28,1,.44,1.99.48,3,.12,3.09-1.42,3.91-4.54,3.27-3.35-.68-5.3-3.09-7.65-5.03-.39-.32-.86-.66-1.23-1.08"/>
      <path class="cls-4" d="M47.59,186.09c5.17,7.04,6.09,15.63,8.29,23.73.58,2.12,1.28,4.16,2.23,6.15,1.69,3.52,4.86,5.24,8.26,6.45,2.62.94,5.49,1.27,7.88,2.82.29.19.74.2.82.17,3.21-1.22,6.29.18,9.44.17,2.63,0,5.14-1.88,6.57-4.14,2.69-4.23,5.85-8.1,10.98-9.71,3.64-1.15,7.38-1.53,11.12-1.33,4.37.23,6.65.98,4.28,6.5"/>
      <path class="cls-3" d="M47.59,186.09c5.17,7.04,6.09,15.63,8.29,23.73.58,2.12,1.28,4.16,2.23,6.15,1.69,3.52,4.86,5.24,8.26,6.45,2.62.94,5.49,1.27,7.88,2.82.29.19.74.2.82.17,3.21-1.22,6.29.18,9.44.17,2.63,0,5.14-1.88,6.57-4.14,2.69-4.23,5.85-8.1,10.98-9.71,3.64-1.15,7.38-1.53,11.12-1.33,4.37.23,6.65.98,4.28,6.5"/>
      <path class="cls-4" d="M156.49,171.45c-3.3-4.79-4.93-10.34-7.05-15.66-1.81-4.52-4-8.78-7.45-12.29-1-1.02-1.93-2.02-3.65-1.99-1.04,2.14.04,3.92.94,5.81,2.61,5.59,6.56,10.33,9.84,15.49,1.67,2.63,3.42,5.21,4.87,7.98.19.37.73.85.06,1.33"/>
      <path class="cls-3" d="M156.49,171.45c-3.3-4.79-4.93-10.34-7.05-15.66-1.81-4.52-4-8.78-7.45-12.29-1-1.02-1.93-2.02-3.65-1.99-1.04,2.14.04,3.92.94,5.81,2.61,5.59,6.56,10.33,9.84,15.49,1.67,2.63,3.42,5.21,4.87,7.98.19.37.73.85.06,1.33"/>
      <path class="cls-4" d="M170.34,44.05c-4.51,4.43-5.55,14.52-1.92,19.12,1.42,1.8,3.48,2.89,5.44,3.91,1.49.78,2.18,1.72,2.7,3.23,2.19,6.31,4.79,12.42,8.73,17.87.27.38.33.93.83,1.17.41.19.7.7,1.25.56,3-5.3-2.03-18.45-10.68-20.78"/>
      <path class="cls-3" d="M170.34,44.05c-4.51,4.43-5.55,14.52-1.92,19.12,1.42,1.8,3.48,2.89,5.44,3.91,1.49.78,2.18,1.72,2.7,3.23,2.19,6.31,4.79,12.42,8.73,17.87.27.38.33.93.83,1.17.41.19.7.7,1.25.56,3-5.3-2.03-18.45-10.68-20.78"/>
      <path class="cls-4" d="M152.89,153.2c-.57-3.79-.86-7.59-.92-11.44-.05-2.85-.82-5.69-2.87-7.95-.83-.92-1.63-1.68-3.05-1.76-2.47-.14-3.8.9-3.54,3.24.52,4.61,2.96,8.47,5.17,12.31,2.16,3.74,5.78,6.53,7.65,10.55.16.34.62-.08.82.24"/>
      <path class="cls-3" d="M152.89,153.2c-.57-3.79-.86-7.59-.92-11.44-.05-2.85-.82-5.69-2.87-7.95-.83-.92-1.63-1.68-3.05-1.76-2.47-.14-3.8.9-3.54,3.24.52,4.61,2.96,8.47,5.17,12.31,2.16,3.74,5.78,6.53,7.65,10.55.16.34.62-.08.82.24"/>
      <path class="cls-4" d="M179.59,196.97c-3.62,2.23-6.74,10.6-5.7,14.24.53,1.87,1.42,3.47,3.89,3.34,2.26-.12,4.25-1.62,4.87-3.66,1-3.3-.32-6.29-1.15-9.25-.52-1.82-.69-3.79-1.81-5.29,2.82-3.46,6.54-5.86,8.26-9.89"/>
      <path class="cls-3" d="M179.59,196.97c-3.62,2.23-6.74,10.6-5.7,14.24.53,1.87,1.42,3.47,3.89,3.34,2.26-.12,4.25-1.62,4.87-3.66,1-3.3-.32-6.29-1.15-9.25-.52-1.82-.69-3.79-1.81-5.29,2.82-3.46,6.54-5.86,8.26-9.89"/>
      <path class="cls-4" d="M42.82,177.93c8.84,4.84,18.58,7.16,28.45,8.92,2.77.5,5.78,1.57,8.66-.13"/>
      <path class="cls-3" d="M42.82,177.93c8.84,4.84,18.58,7.16,28.45,8.92,2.77.5,5.78,1.57,8.66-.13"/>
      <path class="cls-4" d="M156.9,100.21c.05,3.58-1.3,7.02-1.42,10.53-.21,5.83,1.09,11.49,2.34,17.13,1.05,4.76,2.68,9.38,2.79,14.36.1,4.16-.68,7.97-2.58,11.78-1.27,2.53-2.89,5.31-.13,8.36,1.46,1.62,2.63,4.07,1.6,6.8-.31.83.27,1.97.45,2.97"/>
      <path class="cls-3" d="M156.9,100.21c.05,3.58-1.3,7.02-1.42,10.53-.21,5.83,1.09,11.49,2.34,17.13,1.05,4.76,2.68,9.38,2.79,14.36.1,4.16-.68,7.97-2.58,11.78-1.27,2.53-2.89,5.31-.13,8.36,1.46,1.62,2.63,4.07,1.6,6.8-.31.83.27,1.97.45,2.97"/>
      <path class="cls-4" d="M86.72,189.18c.36.44.57,1.13,1.03,1.32,4.26,1.7,6.34,5.66,9.39,8.63,2.13,2.09,5.07,3.09,7.79,4.28,2.61,1.15,5.33,2.07,7.97,3.14,1.46.59,2.11.37,1.75-1.49-.35-1.74-1.3-3.12-2.05-4.62"/>
      <path class="cls-3" d="M86.72,189.18c.36.44.57,1.13,1.03,1.32,4.26,1.7,6.34,5.66,9.39,8.63,2.13,2.09,5.07,3.09,7.79,4.28,2.61,1.15,5.33,2.07,7.97,3.14,1.46.59,2.11.37,1.75-1.49-.35-1.74-1.3-3.12-2.05-4.62"/>
      <path class="cls-4" d="M96.45,130.83c1.99,2.9,4.54,5.29,7.04,7.73,3.46,3.41,5.6,7.72,8.19,11.74,3.12,4.85,6.81,9.36,11.03,13.27,2.26,2.09,4.78,4.06,7.18,6.08,1.7,1.44,2.7,3.34,2.22,5.73"/>
      <path class="cls-3" d="M96.45,130.83c1.99,2.9,4.54,5.29,7.04,7.73,3.46,3.41,5.6,7.72,8.19,11.74,3.12,4.85,6.81,9.36,11.03,13.27,2.26,2.09,4.78,4.06,7.18,6.08,1.7,1.44,2.7,3.34,2.22,5.73"/>
      <path class="cls-4" d="M43.81,183.54c-4.94-1.13-9.95-1.01-15-.62-1.49.12-2.95.34-4.38.72-3.78,1-5.06,4.17-2.97,7.5,1.69,2.71,4.27,4.26,7.47,4.75"/>
      <path class="cls-3" d="M43.81,183.54c-4.94-1.13-9.95-1.01-15-.62-1.49.12-2.95.34-4.38.72-3.78,1-5.06,4.17-2.97,7.5,1.69,2.71,4.27,4.26,7.47,4.75"/>
      <path class="cls-4" d="M124.5,186.72c-1.27-1.81-2.85-3.26-4.85-4.3-2.51-1.31-3.94-3.94-6.44-5.32-6.67-3.66-10.34-10.84-17.2-14.28-.82-.41-1.33-1.53-2.73-.71-.39,2.55,2.25,3.98,3.11,6.24"/>
      <path class="cls-3" d="M124.5,186.72c-1.27-1.81-2.85-3.26-4.85-4.3-2.51-1.31-3.94-3.94-6.44-5.32-6.67-3.66-10.34-10.84-17.2-14.28-.82-.41-1.33-1.53-2.73-.71-.39,2.55,2.25,3.98,3.11,6.24"/>
      <path class="cls-4" d="M72.24,98.95c-2.24-.8-3.93-2.5-6.08-3.51-2.69-1.25-3.66-.94-4.6,1.89-.92,2.73-1.19,5.72-3.3,7.99-.56.61-.81,1.4-1.6,1.9-2.84,1.76-2.44,4.27-1.56,6.84"/>
      <path class="cls-3" d="M72.24,98.95c-2.24-.8-3.93-2.5-6.08-3.51-2.69-1.25-3.66-.94-4.6,1.89-.92,2.73-1.19,5.72-3.3,7.99-.56.61-.81,1.4-1.6,1.9-2.84,1.76-2.44,4.27-1.56,6.84"/>
      <path class="cls-4" d="M74.54,234.65c2.32-1.54,4.93-2.67,7-4.52,1.12-.99,1.84-.71,2.94-.33,6.27,2.18,11.67.59,16.57-3.91,2.64-2.42,5.95-3.87,9.22-5.32,1.48-.66,3.12-.87,4.4-2.27.6-.66,2.01-1.13,3.46-1.12,2.12,0,4.37-.17,6.5-.72"/>
      <path class="cls-3" d="M74.54,234.65c2.32-1.54,4.93-2.67,7-4.52,1.12-.99,1.84-.71,2.94-.33,6.27,2.18,11.67.59,16.57-3.91,2.64-2.42,5.95-3.87,9.22-5.32,1.48-.66,3.12-.87,4.4-2.27.6-.66,2.01-1.13,3.46-1.12,2.12,0,4.37-.17,6.5-.72"/>
      <path class="cls-4" d="M107.4,150.76c3.74,4.06,6.4,8.96,10.27,12.92,2.86,2.93,5.6,6.06,8.73,8.63,2.63,2.17,5.67,4.29,9.35,4.88"/>
      <path class="cls-3" d="M107.4,150.76c3.74,4.06,6.4,8.96,10.27,12.92,2.86,2.93,5.6,6.06,8.73,8.63,2.63,2.17,5.67,4.29,9.35,4.88"/>
      <path class="cls-4" d="M156.94,171.76c3.21,1.99,8.57-.09,10.68-3.32,1.99-3.05,4.5-5.94,7.71-7.95,2.39-1.5,4.92-2.48,7.83-2.34,1.05.05,1.91.41,2.84.66"/>
      <path class="cls-3" d="M156.94,171.76c3.21,1.99,8.57-.09,10.68-3.32,1.99-3.05,4.5-5.94,7.71-7.95,2.39-1.5,4.92-2.48,7.83-2.34,1.05.05,1.91.41,2.84.66"/>
      <path class="cls-4" d="M85.33,108.8c6.44,6.15,12.14,12.84,15.67,21.15l-15.67-21.15Z"/>
      <path class="cls-3" d="M85.33,108.8c6.44,6.15,12.14,12.84,15.67,21.15"/>
      <path class="cls-4" d="M110.6,161.17c-.4-2.77-2.75-1.43-4.16-2.06-2.27,3.19.33,5.26,1.64,7.14,3.64,5.21,7.69,10.15,12.41,14.49.15.14.1.48.14.73"/>
      <path class="cls-3" d="M110.6,161.17c-.4-2.77-2.75-1.43-4.16-2.06-2.27,3.19.33,5.26,1.64,7.14,3.64,5.21,7.69,10.15,12.41,14.49.15.14.1.48.14.73"/>
      <path class="cls-4" d="M138.62,156.73c-1.46-2.77-4.47-4-6.42-6.29-2.71-3.19-4.85-6.53-4.01-11.28,3.21-.31,4.84,1.9,6.47,4.04,1.98,2.59,2.72,5.79,4.08,8.69.97,2.07,1.82,4.2,3.4,5.91.81.88.53,1.77.08,2.69"/>
      <path class="cls-3" d="M138.62,156.73c-1.46-2.77-4.47-4-6.42-6.29-2.71-3.19-4.85-6.53-4.01-11.28,3.21-.31,4.84,1.9,6.47,4.04,1.98,2.59,2.72,5.79,4.08,8.69.97,2.07,1.82,4.2,3.4,5.91.81.88.53,1.77.08,2.69"/>
      <path class="cls-4" d="M111.86,164.99c3.24,4.13,6.86,7.97,9.63,12.45,1.41,2.27,2.89,4.51,3.95,6.98.24.57.89,1.55.32,1.79-2.12.89-.12,3.66-2.67,4.61-2.34.88-3.84,3.53-6.86,3.55-2.65.02-9.54-2.36-10.91-4.14"/>
      <path class="cls-3" d="M111.86,164.99c3.24,4.13,6.86,7.97,9.63,12.45,1.41,2.27,2.89,4.51,3.95,6.98.24.57.89,1.55.32,1.79-2.12.89-.12,3.66-2.67,4.61-2.34.88-3.84,3.53-6.86,3.55-2.65.02-9.54-2.36-10.91-4.14"/>
      <path class="cls-4" d="M43.47,176.06c3.85,2.88,8.1,4.3,13.09,4.32,6.52.03,12.91,1.8,19.49,1.56,1.61-.05,3.31.51,4.77-.71"/>
      <path class="cls-3" d="M43.47,176.06c3.85,2.88,8.1,4.3,13.09,4.32,6.52.03,12.91,1.8,19.49,1.56,1.61-.05,3.31.51,4.77-.71"/>
      <path class="cls-4" d="M105.73,160.17c-1.11-.8-2.24-1.54-3.87-1.2-.35,2.39.94,4.18,2.17,5.97,2.52,3.7,5.61,6.94,8.48,10.35"/>
      <path class="cls-3" d="M105.73,160.17c-1.11-.8-2.24-1.54-3.87-1.2-.35,2.39.94,4.18,2.17,5.97,2.52,3.7,5.61,6.94,8.48,10.35"/>
      <path class="cls-4" d="M156.02,96.32c3.49.26,7.05.69,9.85,2.79,4.66,3.51,10.41,5.43,14.37,9.92.58.65,1.02,1.37,1.47,2.08.75,1.21.91,2.72-.33,3.65-1.13.84-2.68-.13-3.33-.71-3.65-3.37-7.28-6.85-8.29-12.07"/>
      <path class="cls-3" d="M156.02,96.32c3.49.26,7.05.69,9.85,2.79,4.66,3.51,10.41,5.43,14.37,9.92.58.65,1.02,1.37,1.47,2.08.75,1.21.91,2.72-.33,3.65-1.13.84-2.68-.13-3.33-.71-3.65-3.37-7.28-6.85-8.29-12.07"/>
      <path class="cls-4" d="M102.47,131.6c1.84,2.66,4.05,4.84,6.79,6.68,3.15,2.13,5.81,4.92,8.27,7.83,1.89,2.24,4.01,4.34,5.21,7.09"/>
      <path class="cls-3" d="M102.47,131.6c1.84,2.66,4.05,4.84,6.79,6.68,3.15,2.13,5.81,4.92,8.27,7.83,1.89,2.24,4.01,4.34,5.21,7.09"/>
      <path class="cls-4" d="M142.81,73.54c.67,6.99,3.53,12.95,8.47,17.88.81.81,1.85,1.43,3.02,1.75"/>
      <path class="cls-3" d="M142.81,73.54c.67,6.99,3.53,12.95,8.47,17.88.81.81,1.85,1.43,3.02,1.75"/>
      <path class="cls-4" d="M209.83,147.23c-7.44,4.78-14.35,10.22-19.59,17.4-.9,1.23-2.69,2.63-1.93,4.82,3.05.42,4.95-2.1,7.51-2.69"/>
      <path class="cls-3" d="M209.83,147.23c-7.44,4.78-14.35,10.22-19.59,17.4-.9,1.23-2.69,2.63-1.93,4.82,3.05.42,4.95-2.1,7.51-2.69"/>
      <path class="cls-4" d="M122.35,173.4c1.67,4.5,3.93,8.56,8.35,11.64.69-3.15-.99-4.79-1.99-6.68"/>
      <path class="cls-3" d="M122.35,173.4c1.67,4.5,3.93,8.56,8.35,11.64.69-3.15-.99-4.79-1.99-6.68"/>
      <path class="cls-4" d="M108.57,93.87c-1.73-.61-3-1.96-4.55-2.88-5.92-3.48-11.39,0-11.64,6.76-.02.58.14,1.24-.23,1.79"/>
      <path class="cls-3" d="M108.57,93.87c-1.73-.61-3-1.96-4.55-2.88-5.92-3.48-11.39,0-11.64,6.76-.02.58.14,1.24-.23,1.79"/>
      <path class="cls-4" d="M186.76,158.65c2.37.94,5.04,1.27,6.86,3.31,2.55,2.88,2.72,6.16,1.72,9.73-1.35,4.85-3.58,9.34-6.02,13.73"/>
      <path class="cls-3" d="M186.76,158.65c2.37.94,5.04,1.27,6.86,3.31,2.55,2.88,2.72,6.16,1.72,9.73-1.35,4.85-3.58,9.34-6.02,13.73"/>
      <path class="cls-4" d="M91.75,222.24c6.89-4.4,14.57-4.13,22.2-4.09l-22.2,4.09Z"/>
      <path class="cls-3" d="M91.75,222.24c6.89-4.4,14.57-4.13,22.2-4.09"/>
      <path class="cls-4" d="M168.24,169.19c3.84-3.3,8.13-5.62,13.14-6.64,2.16-.45,3.84-1.91,5.01-3.82"/>
      <path class="cls-3" d="M168.24,169.19c3.84-3.3,8.13-5.62,13.14-6.64,2.16-.45,3.84-1.91,5.01-3.82"/>
      <path class="cls-4" d="M91.19,176.71c-.89.4-1.84-.81-2.9.33.7,2.6,2.93,4.11,4.96,5.62,2.69,2,5.39,3.95,7.58,6.5"/>
      <path class="cls-3" d="M91.19,176.71c-.89.4-1.84-.81-2.9.33.7,2.6,2.93,4.11,4.96,5.62,2.69,2,5.39,3.95,7.58,6.5"/>
      <path class="cls-4" d="M93.97,104.43c-1.36-2.42-1.94-5.32-4.7-6.86-1.49-.83-2.59-1.45-4.44-.37-1.88,1.1-1.77,2.63-1.72,4.11.06,1.53.63,2.98,1.41,4.39.44.79,1.46,1.92.22,3.02"/>
      <path class="cls-3" d="M93.97,104.43c-1.36-2.42-1.94-5.32-4.7-6.86-1.49-.83-2.59-1.45-4.44-.37-1.88,1.1-1.77,2.63-1.72,4.11.06,1.53.63,2.98,1.41,4.39.44.79,1.46,1.92.22,3.02"/>
      <path class="cls-4" d="M66.69,182.21c2.47,2.87,5.92,3.11,9.35,2.95,1.47-.08,2.38.39,3.57,1.07,2.41,1.38,5.11,1.96,7.95,2.29,2.66.3,5.7-.17,7.63,2.66.94,1.38,2.99,1.69,4.52,2.34,2.77,1.19,5.23,3.07,8.23,3.73,1.04.23.91,1.49,2.04,1.82,1.67.48,3.1,1.22,4.73-.2,1.79-1.54-.14-2.57-.29-3.84"/>
      <path class="cls-3" d="M66.69,182.21c2.47,2.87,5.92,3.11,9.35,2.95,1.47-.08,2.38.39,3.57,1.07,2.41,1.38,5.11,1.96,7.95,2.29,2.66.3,5.7-.17,7.63,2.66.94,1.38,2.99,1.69,4.52,2.34,2.77,1.19,5.23,3.07,8.23,3.73,1.04.23.91,1.49,2.04,1.82,1.67.48,3.1,1.22,4.73-.2,1.79-1.54-.14-2.57-.29-3.84"/>
      <path class="cls-4" d="M111.62,139.12c2.88.45,4.88,2.48,6.91,4.15,3.17,2.6,5.86,5.75,7.29,9.74"/>
      <path class="cls-3" d="M111.62,139.12c2.88.45,4.88,2.48,6.91,4.15,3.17,2.6,5.86,5.75,7.29,9.74"/>
      <path class="cls-4" d="M123.01,153.74c-1.5.17-1.66.11-2.98-1.36-1.27-1.42-2.82-2.32-4.66-2.78,1.99,5.53,6.09,9.48,9.19,14.1"/>
      <path class="cls-3" d="M123.01,153.74c-1.5.17-1.66.11-2.98-1.36-1.27-1.42-2.82-2.32-4.66-2.78,1.99,5.53,6.09,9.48,9.19,14.1"/>
      <path class="cls-4" d="M94.71,192.28c1.36,2.74,4.45,3.05,6.73,4.4,2.03,1.21,4.43,2.09,6.97,2.23"/>
      <path class="cls-3" d="M94.71,192.28c1.36,2.74,4.45,3.05,6.73,4.4,2.03,1.21,4.43,2.09,6.97,2.23"/>
      <path class="cls-4" d="M84.2,109.02c-1.27,2.7.15,4.82,1.21,7.12,1.2,2.6,3.3,4.54,4.61,7.03"/>
      <path class="cls-3" d="M84.2,109.02c-1.27,2.7.15,4.82,1.21,7.12,1.2,2.6,3.3,4.54,4.61,7.03"/>
      <path class="cls-4" d="M73.04,100.15c3.67,2.27,6.95,5.06,10.33,7.72.44.35.67.92,1.37.86"/>
      <path class="cls-3" d="M73.04,100.15c3.67,2.27,6.95,5.06,10.33,7.72.44.35.67.92,1.37.86"/>
      <path class="cls-4" d="M126.02,154.13c.36.9.6,1.93,1.6,2.39,1.27.58,1.95,1.76,2.59,2.81,2.11,3.44,4.84,6.23,8.19,8.47,1.3.87,2.29,2.13,3.24,3.29,1.87,2.28,3.91,4.34,6.44,5.83.92.54.71,1.62,1.92,2.37,4.74-.68,9.11-2.63,12.35-6.82"/>
      <path class="cls-3" d="M126.02,154.13c.36.9.6,1.93,1.6,2.39,1.27.58,1.95,1.76,2.59,2.81,2.11,3.44,4.84,6.23,8.19,8.47,1.3.87,2.29,2.13,3.24,3.29,1.87,2.28,3.91,4.34,6.44,5.83.92.54.71,1.62,1.92,2.37,4.74-.68,9.11-2.63,12.35-6.82"/>
      <path class="cls-4" d="M85.67,192.09c1.28,2.27,3.75,3.09,5.73,4.45,1.53,1.07,2.78,2.76,4.94,2.77"/>
      <path class="cls-3" d="M85.67,192.09c1.28,2.27,3.75,3.09,5.73,4.45,1.53,1.07,2.78,2.76,4.94,2.77"/>
      <path class="cls-4" d="M96.75,180.47c1.41,2.4,4.2,3.07,6.13,4.82,1.14,1.03,2.98,1.25,3.47,3"/>
      <path class="cls-3" d="M96.75,180.47c1.41,2.4,4.2,3.07,6.13,4.82,1.14,1.03,2.98,1.25,3.47,3"/>
      <path class="cls-4" d="M160.86,148.37c1.92,2.84,1.44,5.97.5,8.95-.49,1.56-1.65,3.22-3.9,2.92"/>
      <path class="cls-3" d="M160.86,148.37c1.92,2.84,1.44,5.97.5,8.95-.49,1.56-1.65,3.22-3.9,2.92"/>
      <path class="cls-4" d="M135.5,181.31c.14.93-.9,1.64-.36,2.94,3.6-.31,6.59-2.05,9.3-4.47"/>
      <path class="cls-3" d="M135.5,181.31c.14.93-.9,1.64-.36,2.94,3.6-.31,6.59-2.05,9.3-4.47"/>
      <path class="cls-4" d="M106.61,178.57c2.17,2.84,4.86,5.19,7.44,7.63.35.33.5.64.56,1.08"/>
      <path class="cls-3" d="M106.61,178.57c2.17,2.84,4.86,5.19,7.44,7.63.35.33.5.64.56,1.08"/>
      <path class="cls-4" d="M124.05,148.52c1.3-.57,2.34.26,2.86,1.03,1.89,2.79,4.52,5.09,5.63,8.37.93,2.77,3.79,4.2,4.68,7.01.13.43.7,1.19.52,1.41-2.38,3.01,1.02,5.62.38,8.48-.1.48-.29.93-.36,1.42"/>
      <path class="cls-3" d="M124.05,148.52c1.3-.57,2.34.26,2.86,1.03,1.89,2.79,4.52,5.09,5.63,8.37.93,2.77,3.79,4.2,4.68,7.01.13.43.7,1.19.52,1.41-2.38,3.01,1.02,5.62.38,8.48-.1.48-.29.93-.36,1.42"/>
      <path class="cls-4" d="M132.29,156.4c2.71-1.37,5.26.3,6.75,1.56,2.75,2.3,5.42,4.81,7.95,7.4"/>
      <path class="cls-3" d="M132.29,156.4c2.71-1.37,5.26.3,6.75,1.56,2.75,2.3,5.42,4.81,7.95,7.4"/>
      <path class="cls-4" d="M122.99,154.72c2.35,2.02,3.41,4.98,5.39,7.28.06.09,0,.32.08.36,4.32,2.45,4.77,8.09,8.92,10.66"/>
      <path class="cls-3" d="M122.99,154.72c2.35,2.02,3.41,4.98,5.39,7.28.06.09,0,.32.08.36,4.32,2.45,4.77,8.09,8.92,10.66"/>
      <path class="cls-4" d="M74.32,225.61c-3.99,2.3-4.75,3.67-.99,8.89l.99-8.89Z"/>
      <path class="cls-3" d="M74.32,225.61c-3.99,2.3-4.75,3.67-.99,8.89"/>
      <path class="cls-4" d="M112.46,159.46c-.52.29-1.33-.4-1.78.81,2.61,1.59,5.09,3.51,6.57,6.39"/>
      <path class="cls-3" d="M112.46,159.46c-.52.29-1.33-.4-1.78.81,2.61,1.59,5.09,3.51,6.57,6.39"/>
      <path class="cls-4" d="M102.9,144.09c.4,2.86,1.69,5.1,4.44,6.29,0,0,.14-.14.15-.21,0-.12-.03-.24-.06-.37"/>
      <path class="cls-3" d="M102.9,144.09c.4,2.86,1.69,5.1,4.44,6.29,0,0,.14-.14.15-.21,0-.12-.03-.24-.06-.37"/>
      <path class="cls-4" d="M143.54,164.67c1.45,3.23,3.67,6,5.51,8.99.26.42.83.37,1.26.54"/>
      <path class="cls-3" d="M143.54,164.67c1.45,3.23,3.67,6,5.51,8.99.26.42.83.37,1.26.54"/>
      <path class="cls-4" d="M112.93,164.39c2.91,2.57,6.31,4.57,8.67,7.78,1.21,1.64,3.18,2.65,4.84,3.84,1.92,1.39,4.13,2.56,6.4,3.5"/>
      <path class="cls-3" d="M112.93,164.39c2.91,2.57,6.31,4.57,8.67,7.78,1.21,1.64,3.18,2.65,4.84,3.84,1.92,1.39,4.13,2.56,6.4,3.5"/>
      <path class="cls-4" d="M106.01,160.7c1.62.5,2.94,1.46,3.98,2.72.7.85,1.33,1.56,2.58.95.47-1.47-1.84-1.34-1.69-2.69"/>
      <path class="cls-3" d="M106.01,160.7c1.62.5,2.94,1.46,3.98,2.72.7.85,1.33,1.56,2.58.95.47-1.47-1.84-1.34-1.69-2.69"/>
      <path class="cls-4" d="M94.61,190.55c2.16-1.11,4.64-1.13,6.81-1.13,2.37,0,4.69-.21,7.03-.38"/>
      <path class="cls-3" d="M94.61,190.55c2.16-1.11,4.64-1.13,6.81-1.13,2.37,0,4.69-.21,7.03-.38"/>
      <path class="cls-4" d="M77.04,225.47c1.33,1.78,3.7,2.28,5.02,4.06l-5.02-4.06Z"/>
      <path class="cls-3" d="M77.04,225.47c1.33,1.78,3.7,2.28,5.02,4.06"/>
      <path class="cls-4" d="M75.76,181.43c-.78-2.49,1.07-2.27,2.2-1.72,3.99,1.9,8.95,1.49,12.29,4.91.45.45,1.01,1.03,1.86.62"/>
      <path class="cls-3" d="M75.76,181.43c-.78-2.49,1.07-2.27,2.2-1.72,3.99,1.9,8.95,1.49,12.29,4.91.45.45,1.01,1.03,1.86.62"/>
      <path class="cls-4" d="M89.08,182.53c2.58-.12,3.18,2.32,4.74,3.53l-4.74-3.53Z"/>
      <path class="cls-3" d="M89.08,182.53c2.58-.12,3.18,2.32,4.74,3.53"/>
      <path class="cls-4" d="M156.45,161.21c-1.27,1.53-.28,2.8.32,4.2,1.48,3.42.24,7.83-2.72,9.99-.87.64-1.88.61-3.09.35-.43-3.41-1.24-6.77-3.61-9.49"/>
      <path class="cls-3" d="M156.45,161.21c-1.27,1.53-.28,2.8.32,4.2,1.48,3.42.24,7.83-2.72,9.99-.87.64-1.88.61-3.09.35-.43-3.41-1.24-6.77-3.61-9.49"/>
      <path class="cls-4" d="M149.61,169.11c2.04,1.22,3.79,2.78,5.31,4.58l-5.31-4.58Z"/>
      <path class="cls-3" d="M149.61,169.11c2.04,1.22,3.79,2.78,5.31,4.58"/>
      <path class="cls-4" d="M127.41,187.7c3.85-.43,5.43-1.71,5.88-5.21.14-1.14.12-1.94,1.47-2.01"/>
      <path class="cls-3" d="M127.41,187.7c3.85-.43,5.43-1.71,5.88-5.21.14-1.14.12-1.94,1.47-2.01"/>
      <path class="cls-4" d="M125.73,153.61c.81-1.23,1.44-.07,1.76.27.79.86,1.81,1.74,1.39,3.18"/>
      <path class="cls-3" d="M125.73,153.61c.81-1.23,1.44-.07,1.76.27.79.86,1.81,1.74,1.39,3.18"/>
      <path class="cls-4" d="M129.09,163.79c-.95,1.67,1.54,3.09.25,4.79l-.25-4.79Z"/>
      <path class="cls-3" d="M129.09,163.79c-.95,1.67,1.54,3.09.25,4.79"/>
      <path class="cls-4" d="M145.12,168.04c-2.17,2.13-3.77,4.81-6.28,6.63l6.28-6.63Z"/>
      <path class="cls-3" d="M145.12,168.04c-2.17,2.13-3.77,4.81-6.28,6.63"/>
      <path class="cls-4" d="M81.98,188.93c1.1,2.99,3.47,2.47,5.83,1.97l-5.83-1.97Z"/>
      <path class="cls-3" d="M81.98,188.93c1.1,2.99,3.47,2.47,5.83,1.97"/>
      <path class="cls-4" d="M113.35,189.06c.62,1.92,2.38,1.69,3.87,1.96l-3.87-1.96Z"/>
      <path class="cls-3" d="M113.35,189.06c.62,1.92,2.38,1.69,3.87,1.96"/>
      <path class="cls-4" d="M83.73,229.01c.53-1.32,2.24-1.72,2.57-3.2l-2.57,3.2Z"/>
      <path class="cls-3" d="M83.73,229.01c.53-1.32,2.24-1.72,2.57-3.2"/>
      <path class="cls-4" d="M119.79,187.82c1.19.7,2.56,1.21,3.02,2.7l-3.02-2.7Z"/>
      <path class="cls-3" d="M119.79,187.82c1.19.7,2.56,1.21,3.02,2.7"/>
      <path class="cls-4" d="M134.77,171.59c-.61,2.39.32,3.93,2.59,4.72l-2.59-4.72Z"/>
      <path class="cls-3" d="M134.77,171.59c-.61,2.39.32,3.93,2.59,4.72"/>
      <path class="cls-4" d="M151.93,161.12c1.67-1.48,2.35.96,3.67.84l-3.67-.84Z"/>
      <path class="cls-3" d="M151.93,161.12c1.67-1.48,2.35.96,3.67.84"/>
      <path class="cls-4" d="M155.53,173.77c1.24.48,2.51,1.09,3.19-.81l-3.19.81Z"/>
      <path class="cls-3" d="M155.53,173.77c1.24.48,2.51,1.09,3.19-.81"/>
      <path class="cls-4" d="M136.46,179c.98.95,2.21,1.14,3.52,1.06.32-.57-.24-1.24.27-1.79"/>
      <path class="cls-3" d="M136.46,179c.98.95,2.21,1.14,3.52,1.06.32-.57-.24-1.24.27-1.79"/>
      <path class="cls-4" d="M109.21,188.9c3.12.3,6.16-.88,9.29-.67.35.02,1.02-.19,1.23-.78"/>
      <path class="cls-3" d="M109.21,188.9c3.12.3,6.16-.88,9.29-.67.35.02,1.02-.19,1.23-.78"/>
      <path class="cls-4" d="M120.59,183.41c-.89,1.23.36,2.86-.86,4.03l.86-4.03Z"/>
      <path class="cls-3" d="M120.59,183.41c-.89,1.23.36,2.86-.86,4.03"/>
      <path class="cls-4" d="M90.22,191.21c1.12-.8,2.32-.13,3.48-.28l-3.48.28Z"/>
      <path class="cls-3" d="M90.22,191.21c1.12-.8,2.32-.13,3.48-.28"/>
      <path class="cls-4" d="M141.41,177.07c1.92.09,2.8-.86,2.64-2.83l-2.64,2.83Z"/>
      <path class="cls-3" d="M141.41,177.07c1.92.09,2.8-.86,2.64-2.83"/>
      <path class="cls-4" d="M117.05,188.93c.32,2.35,2.42,2.16,4,2.71l-4-2.71Z"/>
      <path class="cls-3" d="M117.05,188.93c.32,2.35,2.42,2.16,4,2.71"/>
      <path class="cls-4" d="M133.91,161.12c0,1.6-1.92,2.38-1.84,4.03l1.84-4.03Z"/>
      <path class="cls-3" d="M133.91,161.12c0,1.6-1.92,2.38-1.84,4.03"/>
      <path class="cls-4" d="M133.19,177.11c.05,1.21-1.05,2.59.44,3.59l-.44-3.59Z"/>
      <path class="cls-3" d="M133.19,177.11c.05,1.21-1.05,2.59.44,3.59"/>
    </g>
  </g>
</svg>